# File created by Blade
# Date/Time:  Wed Apr 08 17:39:35 2015
# Frame Rate: 120.000 fps
#------------------------------------------------------
:FULLY-SPECIFIED
:DEGREES
3268
root 10.398146 37.860012 2.518752 191.531183 -35.246097 -511.220047
Spine -8.493341 -0.139610 -3.461013
Head 33.428661 -32.266745 19.667758
LeftShoulder -6.323117 17.604093 19.481395
LeftArm 22.517596 18.062858 -71.352563
LeftForeArm 13.806153 -0.000000 31.096964
LeftHand -12.830405 -0.000000 -9.722936
LeftHandThumb1 -26.253704 0.000000 33.147579
RightShoulder -38.759010 -47.869324 24.228931
RightArm 51.432640 -13.756839 55.216012
RightForeArm 4.979356 -0.000000 11.156170
RightHand -3.538884 0.000000 22.811173
RightHandThumb1 -24.326973 -0.000000 -32.862282
LeftUpLeg -40.460640 36.234748 -6.066599
LeftLeg 8.093807 -0.000000 -0.000000
LeftFoot -8.801783 23.488247 -0.646253
LeftToeBase 5.966650 -0.000000 -0.000000
RightUpLeg -49.392092 9.147163 8.560561
RightLeg 123.168645 -0.000000 -0.000000
RightFoot 32.918385 -8.914809 27.817405
RightToeBase 31.882387 -0.000000 -0.000000
3269
root 10.412053 37.854522 2.535082 191.795202 -34.971000 -511.448743
Spine -8.533125 -0.016574 -3.669548
Head 33.536478 -32.112692 19.616554
LeftShoulder -6.377450 17.676128 19.394000
LeftArm 22.505352 18.001210 -71.270461
LeftForeArm 13.840318 -0.000000 30.956935
LeftHand -12.701506 -0.000000 -9.856910
LeftHandThumb1 -26.253704 0.000000 33.147579
RightShoulder -38.585560 -47.818981 24.018509
RightArm 51.425485 -13.552283 55.373492
RightForeArm 6.229095 0.000000 11.218916
RightHand -3.320763 -0.000000 23.628690
RightHandThumb1 -24.326973 -0.000000 -32.862282
LeftUpLeg -40.601651 36.348512 -6.311867
LeftLeg 8.126222 -0.000000 -0.000000
LeftFoot -8.822940 23.549420 -0.719904
LeftToeBase 5.983425 -0.000000 -0.000000
RightUpLeg -49.318483 8.989868 8.682527
RightLeg 123.941144 -0.000000 -0.000000
RightFoot 33.541258 -8.836307 28.126466
RightToeBase 32.289866 -0.000000 -0.000000
3270
root 10.432349 37.849670 2.551243 191.981531 -34.794324 -511.618084
Spine -8.494118 0.022578 -3.791916
Head 33.588678 -31.995543 19.544037
LeftShoulder -6.388183 17.707968 19.305921
LeftArm 22.424111 17.909243 -71.217122
LeftForeArm 13.869883 -0.000000 30.828359
LeftHand -12.691688 -0.000000 -9.934825
LeftHandThumb1 -26.253704 0.000000 33.147579
RightShoulder -38.411629 -47.774516 23.807315
RightArm 51.393204 -13.250820 55.674909
RightForeArm 7.532357 -0.000000 11.303636
RightHand -3.147419 0.000000 24.169119
RightHandThumb1 -24.326973 -0.000000 -32.862282
LeftUpLeg -40.688469 36.295891 -6.377709
LeftLeg 8.225868 -0.000000 -0.000000
LeftFoot -8.856050 23.692741 -0.814034
LeftToeBase 5.968475 -0.000000 -0.000000
RightUpLeg -49.186798 8.756046 8.934146
RightLeg 124.621209 -0.000000 -0.000000
RightFoot 33.858935 -8.831105 28.509268
RightToeBase 33.935391 -0.000000 -0.000000
3271
root 10.447169 37.844525 2.571685 192.311571 -34.506542 -511.839787
Spine -8.615850 0.123394 -3.967879
Head 33.689421 -31.869928 19.445212
LeftShoulder -6.456610 17.800491 19.190728
LeftArm 22.407408 17.866002 -71.126629
LeftForeArm 13.889738 -0.000000 30.639088
LeftHand -12.799113 -0.000000 -9.939434
LeftHandThumb1 -26.253704 0.000000 33.147579
RightShoulder -38.206721 -47.757265 23.570764
RightArm 51.277716 -12.868033 56.146068
RightForeArm 8.856648 -0.000000 11.392031
RightHand -2.976351 -0.000000 24.597694
RightHandThumb1 -24.326973 -0.000000 -32.862282
LeftUpLeg -40.874680 36.288832 -6.563280
LeftLeg 8.299418 -0.000000 -0.000000
LeftFoot -8.907792 23.864988 -0.943139
LeftToeBase 5.989033 -0.000000 -0.000000
RightUpLeg -49.197430 8.640098 9.074533
RightLeg 125.238671 -0.000000 -0.000000
RightFoot 34.066771 -8.634497 28.665619
RightToeBase 36.008555 -0.000000 -0.000000
3272
root 10.464907 37.840627 2.588067 192.489431 -34.323568 -512.001866
Spine -8.571282 0.148456 -4.074999
Head 33.711909 -31.759629 19.430932
LeftShoulder -6.517598 17.855091 19.076268
LeftArm 22.404112 17.804974 -71.056881
LeftForeArm 13.936879 -0.000000 30.407149
LeftHand -12.819694 -0.000000 -9.944473
LeftHandThumb1 -26.253704 0.000000 33.147579
RightShoulder -38.049513 -47.704509 23.406242
RightArm 51.194739 -12.500592 56.544774
RightForeArm 10.392755 -0.000000 11.485645
RightHand -2.627779 0.000000 24.757847
RightHandThumb1 -24.326973 -0.000000 -32.862282
LeftUpLeg -40.942352 36.226247 -6.603355
LeftLeg 8.403487 -0.000000 -0.000000
LeftFoot -8.965865 24.007884 -1.109730
LeftToeBase 5.964707 -0.000000 -0.000000
RightUpLeg -49.097426 8.447773 9.327386
RightLeg 125.776738 -0.000000 -0.000000
RightFoot 34.345059 -8.254485 28.424036
RightToeBase 37.389179 -0.000000 -0.000000
3273
root 10.480275 37.836281 2.610620 192.852236 -34.059087 -512.216948
Spine -8.729022 0.238799 -4.239191
Head 33.744217 -31.682525 19.371699
LeftShoulder -6.541572 17.934163 18.998088
LeftArm 22.363295 17.698254 -71.054754
LeftForeArm 13.984880 -0.000000 30.129612
LeftHand -12.813386 -0.000000 -9.936147
LeftHandThumb1 -26.253704 0.000000 33.147579
RightShoulder -37.993222 -47.678515 23.299943
RightArm 51.117115 -12.162044 56.950222
RightForeArm 12.030131 -0.000000 11.593436
RightHand -2.307038 0.000000 24.605041
RightHandThumb1 -24.326973 -0.000000 -32.862282
LeftUpLeg -41.208282 36.237080 -6.867120
LeftLeg 8.460232 -0.000000 -0.000000
LeftFoot -8.967815 24.172374 -1.177768
LeftToeBase 5.938028 -0.000000 -0.000000
RightUpLeg -49.198586 8.367631 9.446883
RightLeg 126.220978 -0.000000 -0.000000
RightFoot 34.664498 -8.008509 28.471786
RightToeBase 36.671611 -0.000000 -0.000000
3274
root 10.497048 37.832392 2.628793 193.074313 -33.843042 -512.373683
Spine -8.749801 0.269999 -4.328353
Head 33.771168 -31.590016 19.338447
LeftShoulder -6.583725 18.001287 18.912831
LeftArm 22.334409 17.567664 -71.084977
LeftForeArm 14.047318 0.000000 29.801065
LeftHand -12.880389 -0.000000 -9.911391
LeftHandThumb1 -26.253704 0.000000 33.147579
RightShoulder -37.923967 -47.661264 23.205306
RightArm 51.070898 -11.776742 57.392630
RightForeArm 13.625042 -0.000000 11.678067
RightHand -1.964116 0.000000 24.293057
RightHandThumb1 -24.326973 -0.000000 -32.862282
LeftUpLeg -41.354115 36.238729 -6.999718
LeftLeg 8.532882 -0.000000 -0.000000
LeftFoot -8.990168 24.303460 -1.240712
LeftToeBase 5.971012 -0.000000 -0.000000
RightUpLeg -49.209587 8.274675 9.612355
RightLeg 126.579790 -0.000000 -0.000000
RightFoot 34.814185 -7.850691 28.698278
RightToeBase 36.393005 -0.000000 -0.000000
3275
root 10.512119 37.827850 2.649756 193.326816 -33.619634 -512.547514
Spine -8.797900 0.316241 -4.423122
Head 33.795742 -31.507675 19.288841
LeftShoulder -6.603857 18.058055 18.827356
LeftArm 22.304659 17.479656 -71.088975
LeftForeArm 14.050719 -0.000000 29.419044
LeftHand -12.763108 -0.000000 -9.928014
LeftHandThumb1 -26.253704 0.000000 33.147579
RightShoulder -37.872723 -47.630295 23.111253
RightArm 50.977748 -11.379469 57.921833
RightForeArm 14.937874 -0.000000 11.819596
RightHand -1.516961 -0.000000 23.677981
RightHandThumb1 -24.326973 -0.000000 -32.862282
LeftUpLeg -41.546968 36.279491 -7.215467
LeftLeg 8.591393 -0.000000 -0.000000
LeftFoot -9.021157 24.400176 -1.308373
LeftToeBase 5.999796 -0.000000 -0.000000
RightUpLeg -49.270425 8.202924 9.710044
RightLeg 126.862361 -0.000000 -0.000000
RightFoot 34.949712 -7.568871 28.818016
RightToeBase 35.967429 -0.000000 -0.000000
3276
root 10.527575 37.824428 2.672975 193.604847 -33.428754 -512.693671
Spine -8.891370 0.288631 -4.463107
Head 33.832466 -31.412707 19.227434
LeftShoulder -6.667182 18.099738 18.744508
LeftArm 22.263252 17.396882 -71.151068
LeftForeArm 14.072033 -0.000000 28.959072
LeftHand -12.597398 -0.000000 -9.918097
LeftHandThumb1 -26.253704 0.000000 33.147579
RightShoulder -37.802781 -47.606576 22.978545
RightArm 50.910342 -11.052231 58.398948
RightForeArm 16.217607 -0.000000 11.970788
RightHand -0.980474 -0.000000 23.069776
RightHandThumb1 -24.326973 -0.000000 -32.862282
LeftUpLeg -41.785720 36.250973 -7.406581
LeftLeg 8.663355 -0.000000 -0.000000
LeftFoot -9.061514 24.527931 -1.386951
LeftToeBase 6.072286 -0.000000 -0.000000
RightUpLeg -49.386999 8.113519 9.803193
RightLeg 127.039950 -0.000000 -0.000000
RightFoot 35.043904 -7.385801 28.865744
RightToeBase 35.454556 -0.000000 -0.000000
3277
root 10.541681 37.819884 2.691309 193.780127 -33.257260 -512.813662
Spine -8.884755 0.288467 -4.472776
Head 33.843874 -31.317611 19.185128
LeftShoulder -6.643438 18.077042 18.693573
LeftArm 22.138358 17.272832 -71.282373
LeftForeArm 14.138348 -0.000000 28.530718
LeftHand -12.633476 -0.000000 -9.926957
LeftHandThumb1 -26.253704 0.000000 33.147579
RightShoulder -37.822294 -47.570668 22.912213
RightArm 50.881152 -10.780195 58.809574
RightForeArm 17.285469 -0.000000 12.176099
RightHand -0.480858 -0.000000 21.771126
RightHandThumb1 -24.326973 -0.000000 -32.862282
LeftUpLeg -41.922481 36.257678 -7.531922
LeftLeg 8.722823 -0.000000 -0.000000
LeftFoot -9.073603 24.627380 -1.392215
LeftToeBase 6.105512 -0.000000 -0.000000
RightUpLeg -49.403207 7.990373 9.929985
RightLeg 127.114061 -0.000000 -0.000000
RightFoot 35.027310 -7.599604 28.973899
RightToeBase 35.174528 -0.000000 -0.000000
3278
root 10.555324 37.815027 2.708354 193.960836 -33.086602 -512.946058
Spine -8.886461 0.223046 -4.482763
Head 33.906375 -31.212535 19.123467
LeftShoulder -6.684256 18.125519 18.631898
LeftArm 22.078715 17.175521 -71.384485
LeftForeArm 14.180290 -0.000000 28.064801
LeftHand -12.661123 0.000000 -9.883856
LeftHandThumb1 -26.253704 0.000000 33.147579
RightShoulder -37.764328 -47.551643 22.767243
RightArm 50.851293 -10.610385 59.159248
RightForeArm 18.098997 -0.000000 12.402349
RightHand 0.060380 -0.000000 20.467744
RightHandThumb1 -24.326973 -0.000000 -32.862282
LeftUpLeg -42.039123 36.258153 -7.656965
LeftLeg 8.765151 -0.000000 -0.000000
LeftFoot -9.095144 24.718668 -1.431037
LeftToeBase 6.118065 -0.000000 -0.000000
RightUpLeg -49.456024 7.907386 9.992923
RightLeg 127.163453 -0.000000 -0.000000
RightFoot 34.674997 -7.840068 29.228777
RightToeBase 35.550224 -0.000000 -0.000000
